<svg id="uvd-logo" viewBox="0 0 50 50"><title>Group</title><g fill="none" fill-rule="evenodd"><circle fill="#585858" cx="25" cy="25" r="25"></circle><path d="M20.51 25.366h-.295v1.615c0 2.83-1.543 5.349-4.326 5.349-1.906 0-2.39-1.306-2.39-3.235v-7.308c0-1.43-.605-2.084-2.026-2.084h-3.66v3.36h1.21c.423 0 .665.217.665.683v6.158c0 4.323 2.027 6.033 5.324 6.033 2.662 0 4.598-1.648 5.323-3.296h.06s-.03.342-.03.715v.435c0 1.12.696 1.773 2.027 1.773h2.529l-3.564-9.638c-.151-.405-.424-.56-.847-.56M34.363 19.703h-.507c-1.24 0-1.876.405-2.269 1.493l-2.903 8.335c-.303.933-.545 2.27-.545 2.27h-.06s-.243-1.337-.575-2.27L24.6 21.196c-.394-1.088-.999-1.493-2.269-1.493h-2.208v3.36h.333c.423 0 .696.155.847.559l4.416 11.942h4.568l4.416-11.942c.15-.404.423-.56.847-.56h.363v-.232c-.98-.45-1.561-1.544-1.561-2.98 0-.052.01-.097.01-.147zM39.81 19.532c0-1.089-.553-2.178-1.695-2.178-.93 0-1.706.799-1.706 2.19 0 1.332.694 2.19 1.683 2.19.883 0 1.718-.64 1.718-2.202zm-1.871-3.194c1.377 0 1.836.943 1.836.943h.024s-.024-.18-.024-.41v-1.538c0-.181-.094-.266-.259-.266h-.483v-1.005h1.13c.53 0 .754.23.754.775v6.498c0 .182.094.267.259.267h.482v1.004h-1.094c-.518 0-.73-.242-.73-.653 0-.182.012-.315.012-.315h-.024s-.494 1.113-1.954 1.113c-1.612 0-2.624-1.307-2.624-3.207 0-1.948 1.118-3.206 2.695-3.206z" fill="#FFF"></path></g></svg>
